HIERARCHY
ROOT Hips
{
 OFFSET 0.000000 0.000000 0.000000
 CHANNELS 6 Xposition Yposition Zposition Yrotation Xrotation Zrotation
 JOINT Chest
 {
  OFFSET 0.000000 9.585900 0.002600
  CHANNELS 3 Yrotation Xrotation Zrotation
  JOINT Chest2
  {
   OFFSET 0.000000 9.601200 -0.005300
   CHANNELS 3 Yrotation Xrotation Zrotation
   JOINT Chest3
   {
    OFFSET 0.000000 9.561800 0.000000
    CHANNELS 3 Yrotation Xrotation Zrotation
    JOINT Chest4
    {
     OFFSET 0.000000 9.552100 0.000000
     CHANNELS 3 Yrotation Xrotation Zrotation
     JOINT Neck
     {
      OFFSET 0.000000 14.453000 0.000000
      CHANNELS 3 Yrotation Xrotation Zrotation
      JOINT Head
      {
       OFFSET 0.000000 8.936500 -0.011300
       CHANNELS 3 Yrotation Xrotation Zrotation
       End Site
       {
        OFFSET 0.000000 17.073600 -0.006000
       }
      }
     }
     JOINT RightCollar
     {
      OFFSET -2.921100 9.558500 0.000000
      CHANNELS 3 Yrotation Xrotation Zrotation
      JOINT RightShoulder
      {
       OFFSET -13.519700 0.000000 0.000000
       CHANNELS 3 Yrotation Xrotation Zrotation
       JOINT RightElbow
       {
        OFFSET 0.000000 -29.696600 0.000000
        CHANNELS 3 Yrotation Xrotation Zrotation
        JOINT RightWrist
        {
         OFFSET 0.000000 -24.004700 0.000000
         CHANNELS 3 Yrotation Xrotation Zrotation
         End Site
         {
          OFFSET 0.000000 -17.728500 0.000000
         }
        }
       }
      }
     }
     JOINT LeftCollar
     {
      OFFSET 2.921100 9.558500 0.000000
      CHANNELS 3 Yrotation Xrotation Zrotation
      JOINT LeftShoulder
      {
       OFFSET 13.519700 0.000000 0.000000
       CHANNELS 3 Yrotation Xrotation Zrotation
       JOINT LeftElbow
       {
        OFFSET 0.000000 -29.696600 0.000000
        CHANNELS 3 Yrotation Xrotation Zrotation
        JOINT LeftWrist
        {
         OFFSET 0.000000 -24.004700 0.000000
         CHANNELS 3 Yrotation Xrotation Zrotation
         End Site
         {
          OFFSET 0.000000 -17.728500 0.000000
         }
        }
       }
      }
     }
    }
   }
  }
 }
 JOINT RightHip
 {
  OFFSET -7.771700 -0.012900 -0.001300
  CHANNELS 3 Yrotation Xrotation Zrotation
  JOINT RightKnee
  {
   OFFSET 0.000000 -40.869800 0.001200
   CHANNELS 3 Yrotation Xrotation Zrotation
   JOINT RightAnkle
   {
    OFFSET 0.000000 -39.717900 0.002100
    CHANNELS 3 Yrotation Xrotation Zrotation
    JOINT RightToe
    {
     OFFSET 0.000000 -4.965400 11.033500
     CHANNELS 3 Yrotation Xrotation Zrotation
     End Site
     {
      OFFSET 0.000000 -1.423100 5.872300
     }
    }
   }
  }
 }
 JOINT LeftHip
 {
  OFFSET 7.771700 -0.012900 -0.001300
  CHANNELS 3 Yrotation Xrotation Zrotation
  JOINT LeftKnee
  {
   OFFSET 0.000000 -40.869800 0.001200
   CHANNELS 3 Yrotation Xrotation Zrotation
   JOINT LeftAnkle
   {
    OFFSET 0.000000 -39.717900 0.002100
    CHANNELS 3 Yrotation Xrotation Zrotation
    JOINT LeftToe
    {
     OFFSET 0.000000 -4.965400 11.033500
     CHANNELS 3 Yrotation Xrotation Zrotation
     End Site
     {
      OFFSET 0.000000 -1.423100 5.872300
     }
    }
   }
  }
 }
}
MOTION
Frames: 11
Frame Time: 0.008333
0.000000 85.388000 0.000000 0.000000 -5.767877 0.000000 0.000000 11.653817 0.000000 0.000000 -5.885947 0.000000 0.000000 -0.000000 0.000000 0.000000 -0.000000 0.000000 0.000000 12.528835 0.000000 0.000000 0.711642 0.000000 0.000000 -0.000000 0.000000 0.000000 0.000000 -90.000000 0.000000 -2.309062 0.000000 0.000000 2.309062 0.000000 0.000000 -0.000000 0.000000 0.000000 -0.000000 90.000000 0.000000 -2.309062 0.000000 0.000000 2.309062 0.000000 0.000000 8.520406 0.000000 0.000000 1.905762 0.000000 -0.000000 -4.658285 0.000000 0.000000 -0.000000 0.000000 0.000000 8.520406 0.000000 0.000000 1.905762 0.000000 -0.000000 -4.658285 0.000000 0.000000 -0.000000 0.000000
-207.247141 49.281626 8.520192 173.670035 -32.034038 -4.558973 1.511123 18.573536 2.747022 0.142784 2.148041 0.237644 0.221642 3.535606 0.373786 1.201733 16.110388 1.835380 11.277182 21.764618 0.426360 20.295886 5.236735 -2.260708 -2.976830 -1.851888 -1.904514 1.966204 -11.058852 -12.911289 -41.283576 -51.195011 91.642181 3.292046 -1.362053 -7.149708 -1.007850 -0.725259 3.024490 5.187400 -3.862573 11.936272 65.446514 -41.119895 -104.527726 12.583898 -0.654447 6.729414 -9.150384 -51.899189 0.149088 -146.915591 82.577334 -133.585765 -30.450170 -3.216092 -5.222508 0.021321 -14.132095 -0.359832 -18.289615 -54.031228 23.695131 -74.920975 67.898357 -78.866810 30.659270 9.423343 12.428174 -0.031104 -0.603952 -0.039482
-207.245194 49.282005 8.511304 173.677104 -32.049943 -4.553313 1.489657 18.587520 2.717405 0.139713 2.137207 0.234231 0.219461 3.532302 0.371322 1.218063 16.121738 1.848207 11.187401 21.818638 0.457737 20.163033 5.322175 -2.146635 -2.976105 -1.847927 -1.898133 1.964392 -11.094694 -12.998577 -41.301780 -51.314420 91.601746 3.335282 -1.304325 -6.839086 -1.000804 -0.719137 3.006467 5.888604 -3.938300 11.772842 66.100276 -40.981704 -104.805575 12.942282 -1.339274 6.929614 -9.150366 -51.883038 0.121334 -147.006532 82.559919 -133.666729 -30.438123 -3.234300 -5.226563 0.008120 -14.139987 -0.355177 -18.293936 -54.009370 23.667915 -74.948748 67.909087 -78.887591 30.653081 9.394443 12.408018 -0.039023 -0.576069 -0.035354
-207.242930 49.281520 8.504918 173.689634 -32.052352 -4.546582 1.461518 18.595970 2.682299 0.138112 2.129528 0.233221 0.209158 3.532396 0.356517 1.223234 16.115855 1.849670 11.124228 21.867453 0.503724 20.017590 5.369741 -2.044064 -2.951769 -1.825551 -1.884739 1.934686 -11.119493 -13.066223 -41.351870 -51.447229 91.586770 3.375618 -1.240658 -6.568902 -0.966156 -0.712065 2.945131 6.570024 -4.000794 11.636886 66.847683 -40.966208 -105.075246 13.298433 -2.054613 7.156559 -9.156901 -51.881745 0.093126 -147.142833 82.543619 -133.788299 -30.433235 -3.261636 -5.239461 0.000241 -14.143886 -0.347285 -18.304865 -53.998309 23.640163 -74.949521 67.918081 -78.879388 30.649315 9.369313 12.390530 -0.041773 -0.554170 -0.038016
-207.242236 49.280019 8.502287 173.691005 -32.037858 -4.518402 1.445892 18.597836 2.640408 0.128831 2.137074 0.218322 0.218977 3.527854 0.367038 1.213318 16.101323 1.834094 11.052451 21.901494 0.544239 19.861892 5.383551 -1.958145 -2.943944 -1.756035 -1.891220 1.885428 -11.176962 -13.102990 -41.429504 -51.595479 91.594258 3.409204 -1.184145 -6.338261 -0.942160 -0.722585 2.906404 7.237730 -4.044663 11.465583 67.658004 -41.044398 -105.320245 13.652559 -2.795837 7.418748 -9.137759 -51.903307 0.051681 -147.227667 82.539318 -133.871374 -30.436265 -3.269118 -5.248430 -0.009814 -14.147868 -0.339001 -18.298567 -54.006182 23.598275 -74.917285 67.931774 -78.850076 30.658260 9.344998 12.396004 -0.062144 -0.537394 -0.049127
-207.238490 49.279892 8.501869 173.697769 -32.025802 -4.503346 1.436416 18.614755 2.614839 0.129008 2.138952 0.217058 0.217764 3.535491 0.361516 1.205057 16.131576 1.801547 10.983288 21.870555 0.587303 19.698653 5.371743 -1.891301 -2.938041 -1.765002 -1.867236 1.813482 -11.191727 -13.136817 -41.528314 -51.753679 91.620204 3.438853 -1.144152 -6.142943 -0.924411 -0.794973 2.910799 7.889275 -4.081747 11.276118 68.490655 -41.185392 -105.524362 14.005143 -3.553780 7.711877 -9.127651 -51.917273 0.022120 -147.320580 82.537523 -133.948585 -30.446828 -3.286686 -5.261974 -0.003190 -14.148204 -0.335462 -18.305100 -54.010716 23.574013 -74.888431 67.939179 -78.821172 30.667755 9.327906 12.395205 -0.076408 -0.522850 -0.056647
-207.232168 49.279658 8.506695 173.703297 -31.997253 -4.496791 1.434291 18.626050 2.604029 0.125771 2.117883 0.216799 0.221874 3.562865 0.358721 1.206267 16.139869 1.792137 10.893661 21.860013 0.601246 19.533462 5.340489 -1.844904 -2.945075 -1.786709 -1.860432 1.716755 -11.157247 -13.166381 -41.642152 -51.912772 91.666358 3.464564 -1.122560 -5.983955 -0.915143 -0.855009 2.903825 8.511074 -4.114783 11.096466 69.312647 -41.368960 -105.673293 14.359131 -4.321013 8.025596 -9.151157 -51.949252 0.027015 -147.356231 82.538896 -133.991248 -30.428441 -3.275460 -5.259764 -0.014860 -14.161425 -0.346883 -18.318303 -54.035811 23.572699 -74.885201 67.928008 -78.796709 30.649966 9.330058 12.363159 -0.054451 -0.512627 -0.048248
-207.229457 49.276366 8.520153 173.745726 -31.919312 -4.484385 1.386556 18.598068 2.567132 0.125908 2.093311 0.215915 0.223117 3.595417 0.357477 1.208845 16.150085 1.784945 10.845564 21.817868 0.602126 19.337106 5.312673 -1.796988 -2.952206 -1.815664 -1.860479 1.594062 -11.106660 -13.182357 -41.764720 -52.059331 91.733171 3.434075 -1.098519 -5.823306 -0.909911 -0.922970 2.929221 9.105437 -4.149455 10.922441 70.098859 -41.578586 -105.749945 14.716230 -5.092676 8.355612 -9.191849 -52.025810 0.009552 -147.403651 82.554676 -134.039773 -30.444175 -3.273756 -5.274905 0.001532 -14.168831 -0.349569 -18.376303 -54.100307 23.561471 -74.799627 67.912545 -78.679529 30.601598 9.310818 12.306301 -0.011727 -0.453199 -0.032410
-207.222621 49.277940 8.530912 173.738151 -31.883103 -4.459368 1.383639 18.611343 2.546612 0.130594 2.147958 0.214803 0.221413 3.534646 0.355505 1.211649 16.175969 1.784956 10.796733 21.773432 0.590334 19.152792 5.282683 -1.771463 -2.973090 -1.752785 -1.901793 1.457528 -11.139743 -13.158151 -41.883676 -52.179320 91.811577 3.476663 -1.119552 -5.742090 -0.900467 -1.001465 2.965360 9.652612 -4.185364 10.782252 70.826329 -41.809314 -105.733395 15.072125 -5.851087 8.692218 -9.180396 -52.063932 -0.001553 -147.596234 82.600762 -134.223667 -30.482007 -3.268958 -5.303025 -0.002458 -14.168828 -0.343221 -18.426414 -54.099219 23.578812 -74.657676 67.916355 -78.561313 30.607123 9.280834 12.324406 -0.033390 -0.421356 -0.057199
-207.212709 49.281368 8.542820 173.742804 -31.852832 -4.451907 1.372680 18.606986 2.537269 0.126108 2.177960 0.219155 0.227596 3.494151 0.348569 1.212753 16.196276 1.787549 10.659739 21.822893 0.589045 19.064366 5.215015 -1.822745 -2.994854 -1.696188 -1.932482 1.315175 -11.121268 -13.140735 -41.993237 -52.262913 91.895053 3.498328 -1.161961 -5.694071 -0.892501 -1.053688 3.016796 10.148799 -4.222617 10.680215 71.467491 -42.062808 -105.601106 15.407841 -6.562105 9.016493 -9.191636 -52.093463 0.013255 -147.530973 82.610053 -134.161021 -30.471528 -3.260640 -5.310818 -0.021843 -14.170298 -0.344621 -18.470243 -54.106988 23.604121 -74.552570 67.907188 -78.456829 30.605018 9.305404 12.308225 -0.044018 -0.451391 -0.038913
-207.202611 49.283605 8.559068 173.750624 -31.799250 -4.443482 1.355228 18.580298 2.526108 0.124289 2.180465 0.219368 0.227380 3.525793 0.353356 1.212239 16.229424 1.798898 10.563076 21.796905 0.556737 18.951824 5.163707 -1.867072 -3.007962 -1.737767 -1.968680 1.171559 -11.056017 -13.131664 -42.092192 -52.305325 91.976927 3.486969 -1.197873 -5.648357 -0.881077 -1.172716 3.066818 10.595179 -4.264658 10.618226 71.982787 -42.332125 -105.335411 15.687709 -7.182705 9.317434 -9.203043 -52.147278 0.021982 -147.482864 82.621046 -134.110286 -30.449064 -3.253411 -5.317821 -0.032509 -14.169044 -0.354852 -18.527518 -54.134177 23.641822 -74.425310 67.895713 -78.327162 30.585451 9.330495 12.291759 -0.029700 -0.450992 -0.036407
